Coordinates
version=1
nRows=7
nColumns=46
inDegrees=yes

Units are S.I. units (second, meters, Newtons, ...)
Angles are in degrees.

endheader
time	pelvis_tilt	pelvis_list	pelvis_rotation	pelvis_tx	pelvis_ty	pelvis_tz	bb_angle	bb_tx	bb_ty	bb_tz	hip_flexion_r	hip_adduction_r	hip_rotation_r	knee_angle_r	knee_angle_r_beta	ankle_angle_r	subtalar_angle_r	mtp_angle_r	crank_angle_r	hip_flexion_l	hip_adduction_l	hip_rotation_l	knee_angle_l	knee_angle_l_beta	ankle_angle_l	subtalar_angle_l	mtp_angle_l	crank_angle_l	lumbar_extension	lumbar_bending	lumbar_rotation	arm_flex_r	arm_add_r	arm_rot_r	elbow_flex_r	pro_sup_r	wrist_flex_r	wrist_dev_r	arm_flex_l	arm_add_l	arm_rot_l	elbow_flex_l	pro_sup_l	wrist_flex_l	wrist_dev_l
      0.00500000	    -28.41876811	     -0.26415904	     -1.49537207	      0.13757902	      1.03604134	     -0.20225550	      0.00000000	      0.50000000	      0.00000000	      0.25000000	     91.02154038	     -1.79505738	      2.12868891	     77.44006373	      1.35158409	     -2.32679097	     -8.01289466	      0.00000000	      0.00000000	     64.87037191	     -5.20737661	      3.76994870	     78.88366619	      1.37677970	     -4.24060902	    -11.99648577	      0.00000000	      0.00000000	    -36.83811139	     -0.83908174	      1.52909065	     86.42026093	     -5.17899941	     34.27184612	     29.11836015	     39.60688692	      0.00000000	      0.00000000	     85.54768936	     -7.84054888	     33.08560308	     30.75620731	     38.98469049	      0.00000000	      0.00000000
      0.01000000	    -28.42502278	     -0.28136344	     -1.50585693	      0.13755356	      1.03602440	     -0.20224322	      0.00000000	      0.50000000	      0.00000000	      0.25000000	     91.03275863	     -1.77269571	      2.11424959	     77.44307614	      1.35163666	     -2.35919955	     -8.06301176	      0.00000000	      0.00000000	     64.87589444	     -5.23157751	      3.77650843	     78.87467106	      1.37662271	     -4.24724551	    -12.01308479	      0.00000000	      0.00000000	    -36.82252005	     -0.84530864	      1.52346918	     86.42503051	     -5.13228913	     34.15817241	     28.97555676	     39.68924271	      0.00000000	      0.00000000	     85.57409794	     -7.84483938	     33.05121085	     30.67393500	     39.16143531	      0.00000000	      0.00000000
      0.01500000	    -28.43029616	     -0.28086391	     -1.50817904	      0.13759263	      1.03605452	     -0.20228365	      0.00000000	      0.50000000	      0.00000000	      0.25000000	     91.03985443	     -1.77383998	      2.12364339	     77.46287471	      1.35198221	     -2.35760048	     -8.03588760	      0.00000000	      0.00000000	     64.85911859	     -5.22210513	      3.78732825	     78.85029812	      1.37619732	     -4.19644798	    -11.94335882	      0.00000000	      0.00000000	    -36.83435961	     -0.84246904	      1.55231926	     86.41331034	     -4.81536948	     32.88042391	     28.96804509	     38.96047805	      0.00000000	      0.00000000	     85.50659431	     -7.45422384	     32.00068864	     30.57846526	     38.44207355	      0.00000000	      0.00000000
      0.02000000	    -28.39400533	     -0.40875016	     -1.52747285	      0.13769771	      1.03614164	     -0.20223575	      0.00000000	      0.50000000	      0.00000000	      0.25000000	     90.96665723	     -1.74515973	      1.98430328	     77.45329995	      1.35181510	     -2.25806640	     -7.96686120	      0.00000000	      0.00000000	     64.82529656	     -5.33593583	      3.88904695	     78.87042335	      1.37654857	     -4.09408308	    -11.82203126	      0.00000000	      0.00000000	    -36.85109168	     -0.72887801	      1.63465811	     86.39250481	     -4.78767322	     32.99532619	     28.82527071	     39.52757702	      0.00000000	      0.00000000	     85.51586044	     -7.49453426	     32.11710250	     30.43843682	     39.09490051	      0.00000000	      0.00000000
      0.02500000	    -28.36276747	     -0.48137480	     -1.52797530	      0.13762342	      1.03635263	     -0.20209050	      0.00000000	      0.50000000	      0.00000000	      0.25000000	     90.93601484	     -1.75294680	      1.84808123	     77.45470679	      1.35183965	     -2.32598847	     -8.11920803	      0.00000000	      0.00000000	     64.80119717	     -5.41588545	      3.93686709	     78.84907775	      1.37617602	     -4.22246800	    -11.92837657	      0.00000000	      0.00000000	    -36.90200790	     -0.65507060	      1.61970848	     86.43169883	     -4.66572053	     33.06491352	     28.93811284	     38.34770564	      0.00000000	      0.00000000	     85.43616687	     -7.61530576	     32.01754353	     30.85169449	     37.89790495	      0.00000000	      0.00000000
      0.03000000	    -28.39266603	     -0.36903918	     -1.52072117	      0.13758455	      1.03637989	     -0.20216997	      0.00000000	      0.50000000	      0.00000000	      0.25000000	     90.98918575	     -1.74934780	      2.02528674	     77.46618000	      1.35203990	     -2.28910454	     -8.03884689	      0.00000000	      0.00000000	     64.78891983	     -5.32252136	      3.81823603	     78.77653041	      1.37490983	     -4.31854566	    -12.04469264	      0.00000000	      0.00000000	    -36.86572679	     -0.78987527	      1.56150753	     86.42776048	     -4.94010939	     33.89307217	     28.96975460	     38.62067058	      0.00000000	      0.00000000	     85.48417993	     -7.75599647	     32.81524605	     30.84490255	     38.17389266	      0.00000000	      0.00000000
      0.03500000	    -28.42281984	     -0.37718063	     -1.52458206	      0.13756598	      1.03628913	     -0.20220346	      0.00000000	      0.50000000	      0.00000000	      0.25000000	     91.03895471	     -1.74469111	      2.03109933	     77.49654478	      1.35256987	     -2.28666098	     -8.01248741	      0.00000000	      0.00000000	     64.82756658	     -5.33946147	      3.82539269	     78.78840778	      1.37511713	     -4.24171902	    -11.92347638	      0.00000000	      0.00000000	    -36.82679274	     -0.79209337	      1.55700319	     86.44905695	     -5.06519223	     34.26745218	     28.94723459	     38.71785598	      0.00000000	      0.00000000	     85.50733618	     -7.86475195	     33.01619729	     30.92000123	     38.27652375	      0.00000000	      0.00000000
